<?xml version="1.0" encoding="iso-8859-1"?>
<!-- Generator: Adobe Illustrator 19.0.0, SVG Export Plug-In . SVG Version: 6.00 Build 0)  -->
<svg version="1.1" id="Capa_1" xmlns="http://www.w3.org/2000/svg" xmlns:xlink="http://www.w3.org/1999/xlink" x="0px" y="0px"
	 viewBox="0 0 512 512" style="enable-background:new 0 0 512 512;" xml:space="preserve">
<path d="M464,512H48c-17.673,0-32-14.327-32-32V224c0-17.673,14.327-32,32-32h112c8.837,0,16,7.163,16,16s-7.163,16-16,16H48v256
	h416V224H352c-8.837,0-16-7.163-16-16s7.163-16,16-16h112c17.673,0,32,14.327,32,32v256C496,497.673,481.673,512,464,512z"/>
<polygon style="fill:#FFC107;" points="288,16 288,272 352,272 256,368 160,272 224,272 224,16 "/>
<path d="M256,384c-4.246,0.008-8.322-1.673-11.328-4.672l-96-96c-6.256-6.24-6.269-16.371-0.029-22.627
	c3.009-3.016,7.096-4.708,11.357-4.701h48V16c0-8.837,7.163-16,16-16h64c8.837,0,16,7.163,16,16v240h48
	c8.837-0.016,16.013,7.135,16.029,15.971c0.008,4.26-1.684,8.348-4.701,11.357l-96,96C264.322,382.327,260.246,384.008,256,384z
	 M198.624,288L256,345.376L313.376,288H288c-8.837,0-16-7.163-16-16V32h-32v240c0,8.837-7.163,16-16,16H198.624z"/>
<g>
</g>
<g>
</g>
<g>
</g>
<g>
</g>
<g>
</g>
<g>
</g>
<g>
</g>
<g>
</g>
<g>
</g>
<g>
</g>
<g>
</g>
<g>
</g>
<g>
</g>
<g>
</g>
<g>
</g>
</svg>
