<?xml version="1.0" encoding="iso-8859-1"?>
<!-- Generator: Adobe Illustrator 19.0.0, SVG Export Plug-In . SVG Version: 6.00 Build 0)  -->
<svg version="1.1" id="Capa_1" xmlns="http://www.w3.org/2000/svg" xmlns:xlink="http://www.w3.org/1999/xlink" x="0px" y="0px"
	 viewBox="0 0 512.029 512.029" style="enable-background:new 0 0 512.029 512.029;" xml:space="preserve">
<path style="fill:#2196F3;" d="M336,80.029l160,160l-160,160v-96h-98.24c-88.221,0.044-170.203,45.509-216.96,120.32l-4.8,7.68
	c0-141.385,114.615-256,256-256h64V80.029z"/>
<path d="M16,448.029c-1.496,0.007-2.984-0.208-4.416-0.64C4.732,445.421,0.008,439.157,0,432.029
	c0.176-150.148,121.852-271.824,272-272h48v-80c-0.016-8.837,7.135-16.013,15.971-16.029c4.26-0.008,8.348,1.684,11.357,4.701
	l160,160c6.256,6.24,6.269,16.371,0.029,22.627c-0.01,0.01-0.019,0.019-0.029,0.029l-160,160c-6.24,6.256-16.371,6.269-22.627,0.029
	c-3.016-3.009-4.708-7.096-4.701-11.357v-80h-82.24c-82.621,0.334-159.34,42.87-203.392,112.768l-4.8,7.712
	C26.644,445.187,21.517,448.029,16,448.029z M272,192.029c-110.402,0.143-206.517,75.459-233.056,182.624
	c51.544-54.981,123.453-86.312,198.816-86.624H336c8.837,0,16,7.163,16,16v57.376l121.376-121.376L352,118.653v57.376
	c0,8.837-7.163,16-16,16H272z"/>
<g>
</g>
<g>
</g>
<g>
</g>
<g>
</g>
<g>
</g>
<g>
</g>
<g>
</g>
<g>
</g>
<g>
</g>
<g>
</g>
<g>
</g>
<g>
</g>
<g>
</g>
<g>
</g>
<g>
</g>
</svg>
