<?xml version="1.0" encoding="iso-8859-1"?>
<!-- Generator: Adobe Illustrator 19.0.0, SVG Export Plug-In . SVG Version: 6.00 Build 0)  -->
<svg version="1.1" id="Capa_1" xmlns="http://www.w3.org/2000/svg" xmlns:xlink="http://www.w3.org/1999/xlink" x="0px" y="0px"
	 viewBox="0 0 512.002 512.002" style="enable-background:new 0 0 512.002 512.002;" xml:space="preserve">
<polygon style="fill:#FFC107;" points="16.001,400.001 205.537,256.001 16.001,112.001 306.465,112.001 496.001,256.001 
	306.465,400.001 "/>
<path d="M306.465,416.001H16.001c-8.837,0-16-7.163-16-16c0-5.036,2.371-9.778,6.4-12.8l172.8-131.2l-172.8-131.2
	c-7.069-5.302-8.502-15.331-3.2-22.4c3.022-4.029,7.764-6.4,12.8-6.4h290.464c3.462,0,6.83,1.123,9.6,3.2l189.536,144
	c7.069,5.302,8.502,15.331,3.2,22.4c-0.91,1.213-1.987,2.29-3.2,3.2l-189.472,144C313.342,414.891,309.949,416.015,306.465,416.001z
	 M63.489,384.001h237.6l168.448-128l-168.448-128h-237.6l151.712,115.2c7.069,5.302,8.502,15.331,3.2,22.4
	c-0.91,1.213-1.987,2.29-3.2,3.2L63.489,384.001z"/>
<g>
</g>
<g>
</g>
<g>
</g>
<g>
</g>
<g>
</g>
<g>
</g>
<g>
</g>
<g>
</g>
<g>
</g>
<g>
</g>
<g>
</g>
<g>
</g>
<g>
</g>
<g>
</g>
<g>
</g>
</svg>
