<?xml version="1.0" encoding="iso-8859-1"?>
<!-- Generator: Adobe Illustrator 19.0.0, SVG Export Plug-In . SVG Version: 6.00 Build 0)  -->
<svg version="1.1" id="Capa_1" xmlns="http://www.w3.org/2000/svg" xmlns:xlink="http://www.w3.org/1999/xlink" x="0px" y="0px"
	 viewBox="0 0 511.982 511.982" style="enable-background:new 0 0 511.982 511.982;" xml:space="preserve">
<path d="M495.982,496.007h-384c-8.837,0-16-7.163-16-16v-160c0-8.837,7.163-16,16-16s16,7.163,16,16v144h352v-352h-144
	c-8.837,0-16-7.163-16-16s7.163-16,16-16h160c8.837,0,16,7.163,16,16v384C511.982,488.843,504.818,496.007,495.982,496.007z"/>
<path style="fill:#2196F3;" d="M169.582,96.007h-25.6v-64l-128,112l128,112v-64h37.6c66.2,0,127.73,34.103,162.816,90.24
	l23.584,37.76l-8.448-59.168C346.021,166.301,265.081,96.065,169.582,96.007z"/>
<path d="M367.982,336.007c-5.517,0-10.644-2.842-13.568-7.52l-23.584-37.76c-32.045-51.598-88.541-82.904-149.28-82.72h-21.568v48
	c-0.002,6.271-3.667,11.964-9.376,14.56c-5.718,2.596-12.426,1.608-17.152-2.528l-128-112c-6.645-5.825-7.31-15.934-1.485-22.579
	c0.462-0.527,0.958-1.023,1.485-1.485l128-112c4.7-4.19,11.443-5.184,17.152-2.528c5.709,2.596,9.374,8.289,9.376,14.56v48h9.6
	c103.354,0.434,190.873,76.339,205.92,178.592l8.48,59.168c1.061,7.486-3.263,14.693-10.368,17.28
	C371.807,335.696,369.901,336.021,367.982,336.007z M143.982,176.007h37.568c61.868-0.218,120.579,27.294,160,74.976
	c-17.777-80.836-89.202-138.558-171.968-138.976h-25.6c-8.837,0-16-7.163-16-16v-28.8l-87.712,76.8l87.712,76.8v-28.8
	C127.982,183.17,135.145,176.007,143.982,176.007z"/>
<g>
</g>
<g>
</g>
<g>
</g>
<g>
</g>
<g>
</g>
<g>
</g>
<g>
</g>
<g>
</g>
<g>
</g>
<g>
</g>
<g>
</g>
<g>
</g>
<g>
</g>
<g>
</g>
<g>
</g>
</svg>
